<svg xmlns="http://www.w3.org/2000/svg" height="40" viewBox="0 -960 960 960" width="40"><path d="M571.667-620.015q-13.711-30.782-37.841-47.891-24.131-17.109-57.246-17.109-23.464 0-42.305 7.819t-32.956 22.616l-62.407-62.594q18.667-20.667 43.776-33.457t53.007-17.21v-86.667h80.609v86.087q41.116 3.319 80.442 34.761 39.327 31.442 58.327 78.674l-83.406 34.971ZM800.015-47.71 617.087-230.26q-19.667 17.869-46.391 27.326-26.725 9.456-54.392 12.022v85.42h-80.609v-86.754q-54.028-7.927-96.29-49.311-42.261-41.385-59.159-98.689L365-371.319q13.333 46.87 42.891 71.935 29.558 25.065 74.776 25.065 19.565 0 38.072-4.797t30.725-16.203L48.376-799.348l51.855-52.42L852.435-99.565l-52.42 51.855Z"/></svg>