<svg xmlns="http://www.w3.org/2000/svg" height="40" viewBox="0 -960 960 960" width="40"><path d="M553.638-441.174q-50 0-85-35t-35-85q0-50 35-85t85-35q50 0 85 35t35 85q0 50-35 85t-85 35ZM261.855-293.333q-36.718 0-62.62-25.902-25.902-25.902-25.902-62.62v-358.45q0-36.515 25.902-62.519 25.902-26.003 62.62-26.003h584.507q36.36 0 62.253 26.003t25.893 62.519v358.45q0 36.718-25.893 62.62-25.893 25.902-62.253 25.902H261.855Zm85.985-81.174H760q0-39 27.167-66.167 27.167-27.166 66.167-27.166v-186.668q-39 0-66.167-27.355T760-747.842H347.84q0 38.624-27.166 65.979-27.167 27.355-66.167 27.355v186.668q39 0 66.167 27.166 27.166 27.167 27.166 66.167ZM800-145.492H113.638q-36.36 0-62.253-25.893t-25.893-62.253V-680h88.146v446.362H800v88.146ZM254.507-374.507v-373.335 373.335Z"/></svg>